<svg width="33" height="34" viewBox="0 0 33 34" fill="none" xmlns="http://www.w3.org/2000/svg">
<path d="M30.8939 0.0742188H1.96664C0.976094 0.0742188 0.171875 0.888732 0.171875 1.8956V31.2518C0.171875 32.2586 0.976094 33.0742 1.96664 33.0742H17.5402V20.2947H13.3028V15.3136H17.5402V11.6404C17.5402 7.37875 20.1044 5.05693 23.8514 5.05693C25.6477 5.05693 27.1882 5.19332 27.6374 5.25254V9.7071L25.0384 9.70818C23.0011 9.70818 22.6081 10.6911 22.6081 12.1327V15.312H27.4688L26.8332 20.2925H22.6076V33.0726H30.8934C31.885 33.0726 32.6898 32.2559 32.6898 31.2518V1.89451C32.6892 0.888732 31.8855 0.0742188 30.8939 0.0742188Z" fill="#5F4A39"/>
</svg>
