<svg width="35" height="35" viewBox="0 0 35 35" fill="none" xmlns="http://www.w3.org/2000/svg">
<g clip-path="url(#clip0_2073_586)">
<path d="M24.3818 -0.113281H10.6926C8.0169 -0.111212 5.45139 0.968372 3.5594 2.88841C1.66741 4.80846 0.603601 7.412 0.601562 10.1273V24.0195C0.603194 26.7351 1.66683 29.3391 3.55886 31.2595C5.45089 33.1799 8.01663 34.2596 10.6926 34.2617H24.3818C27.0576 34.2592 29.6231 33.1793 31.5151 31.259C33.407 29.3387 34.4708 26.735 34.4728 24.0195V10.1273C34.4716 7.41174 33.408 4.80772 31.5159 2.8875C29.6237 0.96728 27.0577 -0.112039 24.3818 -0.113281ZM31.0671 24.0195C31.0667 25.8187 30.3622 27.5441 29.1085 28.8164C27.8549 30.0886 26.1547 30.8035 24.3818 30.8039H10.6926C9.81473 30.8039 8.94548 30.6284 8.13447 30.2874C7.32347 29.9465 6.58659 29.4467 5.96593 28.8167C5.34527 28.1867 4.85298 27.4388 4.51718 26.6157C4.18139 25.7926 4.00866 24.9104 4.00886 24.0195V10.1273C4.00866 9.23655 4.1814 8.35445 4.51721 7.53143C4.85303 6.70841 5.34534 5.9606 5.96602 5.33071C6.5867 4.70083 7.32359 4.20122 8.13459 3.86042C8.94559 3.51963 9.8148 3.34433 10.6926 3.34453H24.3818C26.1543 3.34495 27.8541 4.05969 29.1075 5.33163C30.3608 6.60356 31.0651 8.32856 31.0655 10.1273L31.0671 24.0195Z" fill="#5F4A39"/>
<path d="M17.5389 8.18711C12.7074 8.18711 8.78125 12.173 8.78125 17.0746C8.78125 21.9762 12.709 25.9621 17.5389 25.9621C22.3689 25.9621 26.2966 21.9762 26.2966 17.0746C26.2966 12.173 22.3704 8.18711 17.5389 8.18711ZM17.5389 22.5043C16.1199 22.5045 14.7589 21.9326 13.7554 20.9145C12.7519 19.8964 12.188 18.5154 12.1878 17.0754C12.1876 15.6353 12.7511 14.2542 13.7543 13.2358C14.7576 12.2174 16.1184 11.6451 17.5374 11.6449C18.9564 11.6447 20.3173 12.2166 21.3209 13.2347C22.3244 14.2528 22.8883 15.6338 22.8885 17.0738C22.8887 18.5139 22.3252 19.895 21.322 20.9134C20.3187 21.9318 18.9579 22.5041 17.5389 22.5043ZM26.315 6.12305C26.73 6.12336 27.1355 6.24848 27.4804 6.48261C27.8252 6.71675 28.094 7.04937 28.2526 7.43846C28.4113 7.82754 28.4527 8.25563 28.3717 8.6686C28.2906 9.08157 28.0908 9.4609 27.7974 9.75865C27.504 10.0564 27.1302 10.2592 26.7233 10.3414C26.3163 10.4236 25.8945 10.3816 25.5111 10.2206C25.1277 10.0596 24.8 9.78689 24.5692 9.4369C24.3385 9.08691 24.2152 8.67537 24.2149 8.2543C24.2149 7.0793 25.0002 6.12305 26.315 6.12305Z" fill="#5F4A39"/>
</g>
<defs>
<clipPath id="clip0_2073_586">
<rect width="34.5084" height="34" fill="white" transform="translate(0.0478516 0.0742188)"/>
</clipPath>
</defs>
<g clip-path="url(#clip0_2073_586)">
<path d="M24.3818 -0.113281H10.6926C8.0169 -0.111212 5.45139 0.968372 3.5594 2.88841C1.66741 4.80846 0.603601 7.412 0.601562 10.1273V24.0195C0.603194 26.7351 1.66683 29.3391 3.55886 31.2595C5.45089 33.1799 8.01663 34.2596 10.6926 34.2617H24.3818C27.0576 34.2592 29.6231 33.1793 31.5151 31.259C33.407 29.3387 34.4708 26.735 34.4728 24.0195V10.1273C34.4716 7.41174 33.408 4.80772 31.5159 2.8875C29.6237 0.96728 27.0577 -0.112039 24.3818 -0.113281ZM31.0671 24.0195C31.0667 25.8187 30.3622 27.5441 29.1085 28.8164C27.8549 30.0886 26.1547 30.8035 24.3818 30.8039H10.6926C9.81473 30.8039 8.94548 30.6284 8.13447 30.2874C7.32347 29.9465 6.58659 29.4467 5.96593 28.8167C5.34527 28.1867 4.85298 27.4388 4.51718 26.6157C4.18139 25.7926 4.00866 24.9104 4.00886 24.0195V10.1273C4.00866 9.23655 4.1814 8.35445 4.51721 7.53143C4.85303 6.70841 5.34534 5.9606 5.96602 5.33071C6.5867 4.70083 7.32359 4.20122 8.13459 3.86042C8.94559 3.51963 9.8148 3.34433 10.6926 3.34453H24.3818C26.1543 3.34495 27.8541 4.05969 29.1075 5.33163C30.3608 6.60356 31.0651 8.32856 31.0655 10.1273L31.0671 24.0195Z" fill="#5F4A39"/>
<path d="M17.5389 8.18711C12.7074 8.18711 8.78125 12.173 8.78125 17.0746C8.78125 21.9762 12.709 25.9621 17.5389 25.9621C22.3689 25.9621 26.2966 21.9762 26.2966 17.0746C26.2966 12.173 22.3704 8.18711 17.5389 8.18711ZM17.5389 22.5043C16.1199 22.5045 14.7589 21.9326 13.7554 20.9145C12.7519 19.8964 12.188 18.5154 12.1878 17.0754C12.1876 15.6353 12.7511 14.2542 13.7543 13.2358C14.7576 12.2174 16.1184 11.6451 17.5374 11.6449C18.9564 11.6447 20.3173 12.2166 21.3209 13.2347C22.3244 14.2528 22.8883 15.6338 22.8885 17.0738C22.8887 18.5139 22.3252 19.895 21.322 20.9134C20.3187 21.9318 18.9579 22.5041 17.5389 22.5043ZM26.315 6.12305C26.73 6.12336 27.1355 6.24848 27.4804 6.48261C27.8252 6.71675 28.094 7.04937 28.2526 7.43846C28.4113 7.82754 28.4527 8.25563 28.3717 8.6686C28.2906 9.08157 28.0908 9.4609 27.7974 9.75865C27.504 10.0564 27.1302 10.2592 26.7233 10.3414C26.3163 10.4236 25.8945 10.3816 25.5111 10.2206C25.1277 10.0596 24.8 9.78689 24.5692 9.4369C24.3385 9.08691 24.2152 8.67537 24.2149 8.2543C24.2149 7.0793 25.0002 6.12305 26.315 6.12305Z" fill="#5F4A39"/>
</g>
<defs>
<clipPath id="clip0_2073_586">
<rect width="34.5084" height="34" fill="white" transform="translate(0.0478516 0.0742188)"/>
</clipPath>
</defs>
</svg>
